Coordinates
version=1
nRows=15
nColumns=34
inDegrees=no

Units are S.I. units (second, meters, Newtons, ...)
If the header above contains a line with 'inDegrees', this indicates whether rotational values are in degrees (yes) or radians (no).

endheader
time	pelvis_tilt	pelvis_list	pelvis_rotation	pelvis_tx	pelvis_ty	pelvis_tz	hip_flexion_r	hip_adduction_r	hip_rotation_r	knee_angle_r	ankle_angle_r	subtalar_angle_r	mtp_angle_r	hip_flexion_l	hip_adduction_l	hip_rotation_l	knee_angle_l	ankle_angle_l	subtalar_angle_l	mtp_angle_l	lumbar_extension	lumbar_bending	lumbar_rotation	arm_flex_r	arm_add_r	arm_rot_r	elbow_flex_r	pro_sup_r	arm_flex_l	arm_add_l	arm_rot_l	elbow_flex_l	pro_sup_l
0.32	-0.146673	-0.144747	0.0949489	-2.86548	0.998563	0.154501	0.900478	-0.00621153	-0.382191	0.530494	-0.029213	0.0649234	-0.452633	-0.188399	-0.224101	0.000896888	1.80897	-0.386081	-0.0888853	-0.321821	-0.16463	0.281199	-0.155957	-0.80403	-0.34712	-0.287338	1.15584	1.5708	0.156844	-0.13773	0.133273	1.6783	1.5708
0.324	-0.138953	-0.146715	0.0924075	-2.82966	0.998548	0.154865	0.872311	-0.000809681	-0.408244	0.5383	-0.0328778	0.0429244	-0.441908	-0.158361	-0.227786	0.00473884	1.88417	-0.373158	-0.117985	-0.29551	-0.183408	0.283366	-0.142358	-0.757803	-0.362944	-0.25686	1.171	1.5708	0.134021	-0.129457	0.123093	1.58662	1.5708
0.328	-0.132818	-0.148634	0.0887374	-2.79371	0.99816	0.155262	0.846595	0.00421857	-0.432166	0.553075	-0.0359313	0.0269776	-0.438847	-0.125669	-0.230488	0.00895122	1.9571	-0.358207	-0.147137	-0.279992	-0.199867	0.285368	-0.127148	-0.711116	-0.378914	-0.227302	1.18555	1.5708	0.115711	-0.120673	0.111414	1.48903	1.5708
0.332	-0.128939	-0.149108	0.0839644	-2.75763	0.997355	0.155618	0.823803	0.00757742	-0.45023	0.573051	-0.037097	0.0203474	-0.42062	-0.0888983	-0.230721	0.0143531	2.0276	-0.341292	-0.17223	-0.252313	-0.213511	0.285509	-0.11057	-0.663767	-0.39436	-0.199188	1.19858	1.5708	0.100566	-0.111692	0.0987969	1.38723	1.5708
0.336	-0.123573	-0.152408	0.0781032	-2.7214	0.996515	0.156242	0.798555	0.0152605	-0.463439	0.592338	-0.0421993	0.0220355	-0.42298	-0.0525727	-0.233788	0.0202839	2.09486	-0.321604	-0.190378	-0.222331	-0.228451	0.288189	-0.092241	-0.613889	-0.410826	-0.169991	1.21003	1.5708	0.0893998	-0.101292	0.0853	1.27979	1.5708
0.34	-0.11755	-0.155276	0.0727293	-2.68505	0.995509	0.156723	0.771329	0.0223373	-0.47195	0.611747	-0.0463165	0.0374993	-0.419083	-0.0149168	-0.237237	0.0269571	2.15819	-0.30502	-0.20792	-0.205186	-0.243287	0.290165	-0.073289	-0.56243	-0.427339	-0.140997	1.22029	1.5708	0.0818494	-0.0904083	0.069515	1.16776	1.5708
0.344	-0.119137	-0.162993	0.0634554	-2.64909	0.993487	0.158385	0.752473	0.0399097	-0.469093	0.626619	-0.05043	0.037176	-0.430694	0.0320688	-0.246142	0.0373363	2.22094	-0.281137	-0.211985	-0.18707	-0.250668	0.294409	-0.0506866	-0.509041	-0.443385	-0.110435	1.22953	1.5708	0.0762147	-0.0833376	0.0560393	1.05556	1.5708
0.348	-0.125548	-0.171438	0.0504342	-2.61365	0.991051	0.160576	0.738968	0.0634835	-0.454435	0.640167	-0.0515435	0.0278969	-0.445874	0.0885138	-0.259629	0.0467488	2.28182	-0.265074	-0.215779	-0.199967	-0.254167	0.297899	-0.0259434	-0.450956	-0.459044	-0.0782186	1.23694	1.5708	0.0723584	-0.0767423	0.0383085	0.942302	1.5708
0.352	-0.130436	-0.175485	0.0343091	-2.57777	0.988409	0.163153	0.722842	0.0873295	-0.431492	0.660774	-0.00801692	0.0223153	-0.313459	0.142861	-0.269443	0.054651	2.33649	-0.251066	-0.216403	-0.217039	-0.259146	0.294879	-0.000294709	-0.389268	-0.474021	-0.0427189	1.24231	1.5708	0.0680614	-0.0747993	0.0236032	0.830241	1.5708
0.356	-0.137158	-0.17314	0.0116938	-2.54206	0.985663	0.165252	0.706538	0.105356	-0.4127	0.693221	0.0685052	0.0255866	-0.152615	0.200925	-0.270961	0.0552605	2.38569	-0.245029	-0.219577	-0.228669	-0.263466	0.284927	0.030045	-0.325264	-0.490239	-0.00697554	1.24819	1.5708	0.0627175	-0.070307	-0.000772753	0.725343	1.5708
0.36	-0.144021	-0.167754	-0.00794394	-2.50639	0.98243	0.166708	0.688566	0.118016	-0.399039	0.732765	0.15689	0.015566	0.0240304	0.26091	-0.26869	0.0581333	2.43132	-0.233208	-0.219695	-0.22131	-0.2655	0.272443	0.0560502	-0.258794	-0.505756	0.0282338	1.2544	1.5708	0.0564371	-0.0688352	-0.0231501	0.626188	1.5708
0.364	-0.146148	-0.164045	-0.0295093	-2.47045	0.979587	0.168547	0.662766	0.135335	-0.378304	0.767863	0.237194	-0.00522432	0.0828054	0.31635	-0.271517	0.0599622	2.4701	-0.225117	-0.218523	-0.243639	-0.272744	0.25982	0.0844765	-0.188135	-0.519314	0.064101	1.25952	1.5708	0.0472137	-0.0711866	-0.0432548	0.536142	1.5708
0.368	-0.146903	-0.162097	-0.0507702	-2.43437	0.976891	0.170439	0.63414	0.153933	-0.354616	0.796397	0.305946	-0.0143393	0.169715	0.370447	-0.277695	0.0637546	2.50273	-0.215228	-0.213838	-0.269506	-0.280912	0.247991	0.11249	-0.114368	-0.531401	0.0990795	1.26448	1.5708	0.0319514	-0.075553	-0.0732474	0.462501	1.5708
0.372	-0.133811	-0.155977	-0.0742697	-2.3974	0.975764	0.171893	0.588345	0.162637	-0.331686	0.82591	0.358435	-0.0272515	0.170653	0.412367	-0.285092	0.0522334	2.52456	-0.223804	-0.229469	-0.244071	-0.302536	0.230113	0.143053	-0.0380591	-0.542601	0.135895	1.26917	1.5708	0.0130198	-0.0808565	-0.105846	0.400035	1.5708
0.376	-0.122625	-0.155572	-0.0944083	-2.36008	0.974545	0.17386	0.543376	0.173242	-0.309062	0.852679	0.401797	-0.0269825	0.177202	0.453853	-0.295089	0.0500758	2.54187	-0.217792	-0.229056	-0.263208	-0.319419	0.217642	0.171282	0.036888	-0.550349	0.168686	1.27439	1.5708	-0.0130775	-0.0905867	-0.125951	0.352393	1.5708
